<?xml version="1.0" standalone="no"?>
<!DOCTYPE svg PUBLIC "-//W3C//DTD SVG 20010904//EN"
 "http://www.w3.org/TR/2001/REC-SVG-20010904/DTD/svg10.dtd">
<svg version="1.0" xmlns="http://www.w3.org/2000/svg"
 width="576.000000pt" height="324.000000pt" viewBox="0 0 576.000000 324.000000"
 preserveAspectRatio="xMidYMid meet">
<metadata>
Created by potrace 1.16, written by Peter Selinger 2001-2019
</metadata>
<g transform="translate(0.000000,324.000000) scale(0.100000,-0.100000)"
fill="#000000" stroke="none">
<path d="M0 3170 c0 -60 3 -71 21 -80 16 -9 24 -8 37 3 25 21 66 28 86 14 22
-16 13 -41 -21 -56 -24 -11 -24 -13 -9 -30 16 -17 13 -51 -4 -51 -37 0 -52 33
-27 59 7 8 7 11 1 8 -7 -4 -17 0 -24 8 -10 12 -15 12 -36 -2 l-24 -15 0 -833
c0 -825 0 -834 20 -840 11 -3 30 -3 43 0 21 7 21 7 3 -8 -19 -14 -19 -16 -2
-41 9 -15 27 -31 39 -35 13 -5 40 -30 61 -55 20 -25 42 -46 49 -46 6 0 32 -21
58 -47 111 -111 126 -118 184 -87 47 25 114 46 125 39 17 -11 0 -25 -29 -25
-15 0 -32 -5 -38 -11 -6 -6 -25 -13 -43 -15 -17 -2 -40 -8 -51 -14 -20 -11
-17 -30 5 -30 7 0 27 -16 45 -35 17 -19 35 -35 39 -35 17 0 52 32 52 48 0 10
9 23 21 30 13 9 18 19 14 32 -8 27 40 74 98 95 26 9 47 20 47 25 0 5 -22 23
-49 40 -27 18 -51 41 -54 51 -7 26 17 12 68 -41 42 -43 41 -43 120 -24 27 7
29 6 16 -9 -7 -10 -19 -17 -27 -17 -24 0 -25 -18 -1 -45 22 -27 22 -27 64 -10
48 19 50 19 129 -51 33 -29 111 -96 174 -150 63 -54 125 -108 136 -119 12 -11
45 -40 74 -65 28 -25 72 -64 98 -87 25 -24 49 -43 54 -43 4 0 8 -9 8 -20 0
-12 5 -17 13 -14 7 2 22 -6 33 -18 12 -13 44 -43 72 -67 29 -25 52 -51 52 -58
0 -7 6 -13 13 -13 8 0 28 -15 44 -32 17 -18 64 -62 103 -98 40 -36 85 -77 100
-91 16 -15 45 -29 70 -33 24 -4 55 -16 70 -26 51 -36 91 -20 87 35 -3 43 26
44 69 1 39 -39 38 -51 -6 -61 -17 -4 -30 -13 -30 -20 0 -7 -7 -15 -15 -19 -8
-3 -15 -12 -15 -21 0 -12 13 -15 64 -15 59 0 65 2 68 22 4 32 30 33 65 4 l30
-25 301 -1 c166 0 302 3 302 6 0 4 -7 15 -16 25 -20 22 -12 49 16 49 28 0 63
-37 57 -61 -5 -18 6 -19 350 -19 l355 0 -6 23 c-17 61 -18 78 -2 102 16 24 15
27 -6 55 -20 28 -21 31 -5 47 15 15 19 14 55 -11 29 -20 46 -25 66 -20 44 11
175 -84 163 -119 -2 -6 -31 -22 -65 -37 -34 -14 -64 -29 -68 -33 -4 -4 265 -7
599 -7 475 0 606 3 610 13 3 9 9 9 26 0 15 -10 96 -13 306 -13 l285 0 0 380
c0 247 -4 380 -10 380 -19 0 -50 40 -50 65 0 18 9 31 30 43 l30 17 -2 274 -3
274 -33 17 c-38 21 -79 11 -118 -27 -17 -17 -35 -23 -69 -23 -39 0 -50 -5 -72
-30 -23 -28 -29 -30 -69 -24 -41 6 -47 4 -85 -31 -37 -33 -45 -37 -80 -31 -35
6 -43 2 -78 -29 -35 -32 -45 -36 -86 -34 -26 2 -50 -2 -53 -7 -23 -32 -68 -54
-111 -54 -39 0 -52 -5 -76 -30 -31 -32 -78 -40 -115 -20 -17 9 -18 14 -8 35
12 27 65 65 90 65 8 0 50 18 93 40 43 22 85 40 92 40 7 0 34 13 60 29 27 16
64 32 83 36 19 4 59 21 89 36 30 16 62 29 73 29 10 0 38 9 60 20 23 11 49 20
59 20 9 0 22 6 28 14 9 11 5 16 -19 26 -17 7 -37 21 -44 31 -7 10 -35 28 -62
40 -27 12 -60 32 -74 44 -14 13 -48 35 -77 50 -29 14 -56 31 -60 38 -11 18
-77 57 -97 57 -9 0 -26 12 -39 26 -12 14 -47 39 -77 54 -30 15 -64 38 -75 51
-11 13 -13 18 -5 12 8 -7 19 -13 26 -13 16 0 15 47 -2 61 -18 15 4 38 30 31
13 -3 17 -1 12 6 -4 7 -2 12 3 12 6 0 11 4 11 9 0 13 -60 35 -91 33 -15 -1
-30 2 -34 8 -10 16 -22 11 -30 -12 -4 -14 -8 -18 -12 -10 -2 6 -10 9 -16 6 -7
-4 0 5 15 20 15 14 32 26 38 26 6 0 9 4 6 9 -6 10 76 -27 84 -38 10 -13 60
-41 72 -41 7 0 23 -11 36 -25 13 -13 39 -29 58 -35 36 -12 78 -70 55 -78 -6
-2 -11 -14 -11 -27 0 -14 -8 -29 -19 -34 -16 -9 -20 -6 -25 22 -4 19 -2 33 4
35 7 3 7 8 -1 18 -6 7 -9 20 -6 29 4 9 -5 22 -22 35 -30 21 -56 27 -46 10 4
-6 -5 -7 -23 -4 -23 5 -31 2 -35 -13 -4 -10 -12 -25 -19 -35 -9 -13 -9 -20 2
-34 20 -23 86 -64 105 -64 8 0 30 -14 48 -31 17 -18 55 -42 83 -55 29 -12 54
-27 55 -31 6 -14 75 -53 93 -53 9 0 32 -15 52 -34 20 -19 51 -40 68 -46 59
-23 71 -31 96 -67 13 -19 34 -42 46 -50 20 -13 26 -12 53 1 16 9 37 16 46 16
8 0 41 14 72 30 31 17 61 30 68 30 10 0 13 45 14 191 2 184 1 191 -19 196 -11
3 -20 9 -20 13 0 5 9 6 20 3 17 -4 20 0 20 24 0 16 -5 34 -12 41 -9 9 -9 12 0
12 21 0 13 27 -10 34 -35 9 -41 7 -29 -7 9 -11 3 -14 -32 -13 -31 1 -42 -3
-42 -14 0 -8 9 -16 20 -18 22 -4 55 -30 55 -44 0 -17 -42 -7 -65 16 -25 25
-94 70 -110 72 -5 1 -15 2 -20 3 -6 0 -16 10 -23 22 -13 20 -12 21 16 14 63
-14 48 41 -20 70 -24 11 -55 29 -70 41 -15 12 -41 25 -58 29 -34 7 -63 45 -35
45 9 0 33 -13 53 -29 20 -16 48 -32 61 -36 14 -4 32 -15 40 -25 9 -9 29 -22
44 -28 25 -11 27 -10 18 7 -14 24 -55 51 -81 51 -12 0 -31 11 -44 25 -13 14
-48 36 -78 49 -56 25 -88 59 -45 48 12 -2 31 -13 42 -22 25 -22 80 -50 98 -50
8 0 22 -10 33 -21 10 -12 42 -33 69 -46 28 -13 68 -37 90 -53 22 -16 47 -29
56 -30 9 0 28 -9 42 -20 14 -11 28 -20 31 -20 3 0 6 57 6 128 -1 120 -2 128
-23 143 -27 20 -74 33 -105 30 -16 -2 -25 4 -29 18 -4 15 -13 21 -32 21 l-26
0 28 -26 c16 -14 25 -29 22 -32 -4 -4 -14 4 -24 16 -9 13 -27 24 -39 25 -14 1
-21 6 -18 14 4 8 -3 13 -18 13 -24 0 -99 28 -81 31 6 0 -1 4 -14 8 -27 7 -41
31 -19 31 12 0 90 30 175 66 36 16 69 18 77 5 9 -15 85 -51 106 -51 20 0 20 9
20 375 l0 375 -145 0 c-135 0 -145 -1 -155 -20 l-11 -21 -26 21 c-25 20 -37
20 -704 20 -441 0 -680 -3 -684 -10 -3 -5 -17 -10 -30 -10 -13 0 -27 5 -30 10
-4 6 -132 10 -351 10 -342 0 -344 0 -332 -20 16 -25 2 -51 -34 -64 -40 -14
-143 40 -131 70 4 12 -15 14 -112 14 -95 0 -116 -3 -112 -14 8 -21 -13 -36
-50 -36 -23 0 -33 -5 -33 -15 0 -17 -55 -22 -64 -6 -10 15 5 41 23 41 10 0 26
7 37 15 17 13 -103 15 -1068 14 -914 0 -1088 -3 -1088 -14 0 -19 -39 -45 -67
-45 -23 0 -43 26 -36 48 7 19 -250 17 -267 -3 -11 -13 -15 -13 -33 0 -16 11
-51 15 -139 15 l-118 0 0 -70z m4662 -238 c15 -9 28 -20 28 -25 0 -4 10 1 22
13 23 22 63 27 73 9 4 -6 -1 -16 -11 -24 -15 -11 -17 -16 -6 -26 6 -7 12 -23
12 -36 0 -13 -6 -24 -12 -24 -31 -3 -55 4 -80 22 -15 10 -36 19 -47 19 -12 0
-29 7 -38 14 -10 8 -28 23 -41 33 -15 12 -21 24 -17 35 8 20 75 15 117 -10z
m-1211 -56 c10 -13 33 -27 50 -31 16 -4 42 -18 57 -32 15 -14 43 -32 62 -40
19 -9 50 -28 68 -44 18 -16 40 -29 49 -29 8 0 31 -13 49 -30 47 -41 71 -45
132 -21 29 11 54 16 57 11 7 -11 -32 -33 -49 -27 -7 3 -19 1 -27 -4 -11 -7 -6
-16 26 -44 22 -19 47 -34 55 -35 8 0 33 -16 55 -36 l40 -36 -40 18 c-22 10
-49 26 -60 35 -18 14 -45 30 -107 60 -10 5 -30 9 -45 10 -16 0 -22 3 -15 6 22
9 13 24 -25 40 -21 8 -53 28 -71 44 -18 16 -39 29 -46 29 -7 0 -30 14 -51 30
-21 17 -50 33 -64 37 -14 3 -44 21 -65 40 -22 18 -47 33 -56 33 -18 0 -60 35
-60 50 0 17 61 -9 81 -34z m943 -37 c21 -17 30 -19 41 -9 9 7 26 10 40 6 24
-6 25 -8 10 -23 -16 -15 -15 -17 2 -26 10 -5 30 -21 45 -34 20 -20 37 -25 75
-25 38 1 62 -7 109 -34 32 -18 93 -51 134 -71 41 -21 78 -42 81 -47 4 -5 74
-48 155 -95 134 -78 149 -89 152 -116 2 -17 9 -33 15 -37 7 -4 -6 -5 -27 -1
-28 4 -37 3 -32 -5 4 -7 17 -12 29 -12 12 0 30 -12 40 -25 l17 -24 -29 10
c-16 6 -39 21 -52 35 -40 43 -86 26 -72 -26 6 -21 4 -21 -18 -10 -13 7 -30 21
-39 30 -8 10 -40 31 -70 46 -30 16 -57 31 -60 35 -5 6 -161 99 -197 118 -13 6
-23 8 -23 3 0 -5 53 -40 118 -77 170 -98 182 -107 182 -132 0 -49 -33 -43
-150 28 -175 105 -254 149 -264 146 -6 -2 61 -46 147 -97 143 -85 158 -96 155
-119 -4 -38 -30 -37 -95 2 -274 166 -308 184 -328 177 -11 -5 -29 -11 -40 -15
-15 -5 -16 -8 -6 -14 7 -5 10 -14 6 -21 -5 -8 -12 -7 -25 5 -14 13 -23 14 -39
6 -11 -6 -27 -11 -36 -11 -27 0 -7 18 28 26 38 8 97 35 97 44 0 7 -137 95
-164 106 -25 9 -18 58 9 62 11 1 59 -20 105 -49 47 -28 92 -54 100 -57 8 -3
23 -12 33 -20 9 -8 20 -12 24 -9 8 8 13 4 -78 60 -42 26 -80 47 -86 47 -17 0
-24 29 -13 51 13 23 37 24 64 4 29 -22 36 -19 36 14 0 37 30 49 62 27 39 -28
50 -17 15 14 -39 34 -76 50 -117 50 -31 0 -48 15 -28 23 10 4 9 8 -2 16 -20
15 -24 14 -50 -9 -25 -21 -34 -23 -64 -11 -16 6 -14 10 19 25 34 17 37 20 22
31 -9 7 -17 17 -17 24 0 17 25 13 54 -10z m-1325 -14 c20 -10 37 -12 58 -6 17
5 36 5 44 0 14 -8 14 -8 -36 -24 -17 -5 -21 -25 -5 -25 6 0 10 -4 10 -9 0 -18
-32 -20 -73 -6 -51 18 -76 3 -38 -23 13 -10 40 -32 60 -51 20 -18 50 -40 68
-47 17 -7 46 -27 64 -44 19 -16 39 -30 45 -30 14 0 67 -41 60 -47 -6 -7 -45
15 -86 49 -19 15 -40 28 -46 28 -6 0 -28 13 -49 30 -20 16 -46 32 -58 36 -12
4 -32 15 -45 25 -27 21 -130 55 -139 45 -8 -8 35 -54 59 -62 10 -3 16 -10 13
-15 -4 -5 1 -9 9 -9 9 0 16 -5 16 -11 0 -6 -7 -9 -15 -5 -22 8 -18 -8 5 -19
35 -18 325 -216 325 -223 0 -16 49 -71 59 -66 6 3 2 -2 -8 -10 -16 -13 -18
-20 -8 -38 6 -13 13 -32 14 -43 2 -11 8 -23 13 -27 6 -4 2 -8 -9 -8 -17 0 -16
-1 3 -17 21 -18 20 -18 -43 -20 -153 -4 -210 -102 -89 -154 27 -11 68 -19 102
-19 46 0 62 -4 76 -20 10 -12 25 -18 32 -16 7 3 16 -1 20 -8 16 -26 36 -21 75
18 29 30 38 46 35 63 -2 13 0 26 5 29 5 3 7 13 4 21 -3 8 -2 11 4 8 12 -7 33
32 24 46 -4 7 1 9 17 5 l24 -6 -22 11 c-13 7 -23 16 -23 22 0 5 7 4 15 -3 9
-7 19 -10 23 -6 4 4 -1 12 -11 17 -9 6 -29 22 -45 36 -15 14 -20 21 -12 15 26
-18 91 -42 85 -31 -4 5 -2 16 4 23 8 9 0 21 -30 45 -60 50 -40 49 39 -2 38
-25 79 -48 91 -52 11 -3 21 -11 21 -16 0 -5 6 -9 14 -9 7 0 19 -7 26 -15 7 -8
17 -15 23 -15 16 0 -23 39 -56 55 -17 8 -34 15 -39 15 -4 0 -27 18 -49 40 -23
22 -47 40 -54 40 -8 0 -27 12 -44 26 -17 14 -48 35 -69 47 -21 12 -50 30 -64
40 -14 10 -38 20 -53 23 -37 7 -64 26 -80 58 -13 24 -12 26 10 26 13 0 27 -4
30 -10 3 -5 21 -10 38 -10 19 0 27 -3 20 -8 -9 -6 -5 -17 17 -40 16 -18 34
-32 41 -32 6 0 27 -14 47 -31 20 -17 50 -37 67 -45 17 -7 38 -20 45 -29 25
-30 68 -47 88 -34 14 9 28 7 65 -10 26 -12 47 -25 47 -30 0 -4 16 -16 35 -27
38 -20 45 -34 18 -34 -9 0 -14 -2 -12 -5 7 -7 79 6 79 14 0 4 -19 18 -42 31
-24 13 -45 26 -48 30 -3 3 -20 16 -37 29 -18 12 -33 26 -33 30 0 5 20 14 45
21 41 12 47 11 90 -15 42 -24 50 -25 76 -15 38 16 49 6 14 -13 l-27 -14 36
-21 c35 -21 36 -23 36 -85 0 -34 -5 -68 -10 -73 -7 -7 -8 -19 -1 -37 6 -15 7
-28 3 -28 -4 -1 -11 -2 -17 -4 -5 -1 -14 -3 -18 -3 -4 -1 -3 -11 3 -21 7 -14
6 -21 -3 -24 -9 -4 -8 -8 3 -16 17 -12 1 -15 -18 -3 -7 5 -10 17 -7 28 6 19 6
19 -9 0 -9 -11 -16 -23 -16 -27 0 -8 117 -79 131 -79 18 0 0 17 -37 35 -19 9
-34 19 -31 21 8 8 51 -14 82 -41 17 -15 24 -23 16 -19 -9 5 -12 3 -7 -5 4 -6
12 -9 17 -6 5 4 22 -3 38 -14 16 -11 40 -25 55 -31 14 -5 26 -16 26 -24 0 -9
6 -13 14 -10 20 8 32 -17 15 -30 -21 -16 -12 -52 22 -85 29 -30 29 -31 23
-111 -6 -70 -5 -80 10 -80 26 0 18 -17 -14 -28 -30 -11 -56 3 -27 14 9 3 15
21 15 50 1 24 -1 44 -4 44 -3 0 -22 -9 -44 -20 -22 -11 -41 -20 -44 -20 -2 0
2 26 10 58 7 31 13 62 14 68 0 6 -125 -35 -277 -93 -153 -57 -357 -133 -453
-168 -96 -35 -251 -94 -345 -131 -93 -36 -190 -71 -215 -76 -25 -6 -47 -12
-49 -14 -2 -2 8 -21 23 -42 35 -51 25 -88 -29 -98 -34 -6 -41 -18 -36 -61 1
-7 -8 -13 -20 -13 -19 0 -21 4 -16 35 4 25 2 35 -7 35 -24 0 -7 91 22 123 22
23 23 27 8 27 -71 0 -76 3 -1206 853 -122 92 -176 139 -178 154 -7 46 35 68
254 138 462 145 618 200 638 223 19 21 63 32 51 12 -3 -5 -2 -10 4 -10 5 0 12
4 16 10 3 5 12 7 21 3 8 -3 14 -2 13 3 -4 22 3 32 25 36 14 3 29 1 34 -4 17
-17 54 1 47 22 -4 12 1 22 12 29 10 6 12 11 6 11 -22 0 -14 18 10 25 85 24
137 49 137 66 0 30 37 44 65 25 32 -21 45 -20 45 3 0 32 27 46 64 33 43 -16
46 -15 46 8 0 10 8 24 18 29 22 13 18 13 51 -4z m1952 -99 c42 -36 100 -52
130 -36 10 6 27 10 39 10 37 0 19 -33 -25 -46 -23 -6 -41 -18 -43 -27 -4 -20
-17 -21 -60 -6 -34 12 -37 28 -9 45 17 10 17 12 -9 29 -25 16 -28 16 -39 1
-17 -22 -47 -20 -73 4 -28 26 -28 34 1 48 35 17 46 14 88 -22z m-4517 -12 c9
-8 16 -26 16 -39 0 -27 32 -49 60 -42 10 2 24 1 31 -4 12 -8 11 -11 -1 -19 -8
-6 -23 -8 -33 -6 -15 4 -17 -1 -11 -44 6 -42 4 -49 -17 -64 -13 -9 -36 -16
-52 -16 -23 0 -31 6 -43 38 -8 20 -22 52 -31 69 -13 27 -14 35 -3 48 7 8 19
15 26 15 8 0 14 10 14 24 0 30 9 56 20 56 5 0 16 -7 24 -16z m4720 -790 c28
-27 90 -64 106 -64 8 0 22 -8 32 -17 16 -15 23 -15 55 -4 32 12 37 11 54 -6
23 -22 17 -78 -10 -93 -25 -13 -78 16 -90 51 -5 16 -15 29 -21 29 -6 0 -28 13
-48 30 -20 16 -53 36 -72 44 -20 8 -43 23 -53 34 -16 18 -16 19 4 17 12 -1 31
-10 43 -21z m-3282 -298 c163 -134 331 -259 400 -296 26 -14 23 -15 -55 -12
-147 5 -173 20 -472 257 -101 80 -134 112 -135 130 0 6 11 27 26 48 l25 37 44
-31 c25 -18 100 -78 167 -133z m2954 138 c21 -15 41 -30 44 -35 3 -4 21 -15
40 -23 19 -8 53 -29 75 -46 22 -18 58 -41 80 -51 22 -10 55 -32 73 -49 30 -28
32 -32 18 -51 -8 -12 -13 -26 -11 -33 5 -14 -60 -56 -86 -56 -11 0 -32 -6 -47
-14 -37 -18 -141 -5 -159 21 -24 35 -47 53 -62 48 -8 -3 -17 -1 -21 5 -9 15
-59 -11 -66 -35 -6 -18 -7 -18 -16 5 -5 13 -6 30 -4 37 3 8 -3 17 -14 21 -30
11 -289 176 -290 185 0 4 9 7 20 7 11 0 20 -5 20 -11 0 -22 88 -2 186 44 150
68 162 70 220 31z m-3770 -509 c-11 -8 -28 -15 -39 -15 -15 0 -18 -6 -15 -42
l3 -43 -60 -22 c-71 -26 -75 -26 -75 -12 0 6 -9 24 -21 40 -20 29 -18 54 4 46
13 -4 134 34 164 52 10 6 27 10 38 10 20 0 20 0 1 -14z m3324 -421 c33 -22
110 -96 110 -106 0 -9 -117 -65 -145 -69 -11 -2 -34 6 -52 19 -37 27 -43 27
-82 5 -28 -16 -33 -16 -41 -3 -25 38 -2 110 35 110 7 0 42 13 77 30 74 35 67
34 98 14z m872 -25 c37 -23 68 -48 68 -55 0 -9 12 -14 36 -14 39 0 130 -53
139 -81 3 -10 13 -20 22 -23 29 -12 -6 -36 -53 -36 -71 0 -144 40 -144 80 0
35 -20 39 -76 13 -83 -38 -98 -38 -129 -1 -24 28 -26 37 -20 77 4 25 11 54 16
64 16 29 67 21 141 -24z m347 -31 c51 -29 89 -86 67 -100 -20 -14 -101 -8
-136 10 -19 9 -41 30 -48 45 -12 24 -11 32 3 53 14 21 21 24 47 18 18 -3 48
-15 67 -26z m-3036 -19 c22 -18 36 -37 33 -45 -3 -7 -1 -16 4 -19 4 -3 10 1
13 7 6 18 59 -22 63 -47 4 -25 -15 -47 -34 -40 -9 3 -19 0 -24 -7 -4 -8 -8 4
-8 30 0 23 -4 42 -10 42 -5 0 -10 -13 -10 -30 0 -25 -4 -30 -23 -30 -13 0 -31
6 -42 13 -19 15 -13 37 11 37 20 0 17 18 -6 32 -14 9 -20 24 -20 50 0 21 3 38
8 38 4 0 24 -14 45 -31z m276 -81 c-1 -42 -16 -136 -19 -123 -1 6 -1 24 0 41
1 18 -3 35 -9 39 -7 4 -11 -11 -11 -43 0 -49 -1 -50 -40 -66 -68 -27 -70 -25
-70 58 l0 74 47 16 c58 20 63 20 63 -1 0 -20 10 -11 15 14 2 10 4 19 4 21 1 1
6 2 11 2 6 0 10 -15 9 -32z m1875 -294 c11 -4 16 -19 16 -49 0 -33 -5 -46 -22
-57 -34 -22 -65 -27 -81 -14 -16 12 -32 99 -22 116 7 11 84 14 109 4z m-320
-74 c35 -38 56 -50 56 -31 0 5 15 16 32 24 24 12 36 13 46 5 20 -17 10 -51
-21 -68 -26 -14 -29 -14 -42 4 -16 21 -24 20 -140 -21 -65 -22 -80 -32 -80
-48 1 -34 -15 -56 -37 -53 -40 6 -47 37 -16 80 10 14 7 24 -21 58 -42 53 -36
75 18 66 26 -4 49 -1 67 9 16 8 45 15 65 15 29 0 43 -8 73 -40z"/>
<path d="M2990 2043 c-8 -3 -39 -15 -68 -25 -29 -11 -52 -24 -50 -28 6 -16
171 -130 188 -130 32 0 30 13 -6 38 -27 18 -33 26 -23 33 30 18 88 20 143 4
54 -16 119 -13 100 4 -5 4 -35 13 -67 20 -31 7 -55 17 -51 22 10 17 -6 46 -32
57 -25 12 -107 15 -134 5z"/>
<path d="M13 1283 c-10 -3 -13 -53 -13 -200 0 -174 2 -194 16 -189 37 14 62
17 68 7 8 -13 -33 -41 -61 -41 l-23 0 0 -171 c0 -146 2 -174 16 -184 15 -10
15 -13 0 -27 -13 -14 -16 -41 -16 -148 0 -117 2 -135 20 -157 11 -14 20 -29
20 -34 0 -4 -9 -11 -20 -14 -16 -5 -20 -15 -20 -56 0 -28 4 -48 9 -45 5 3 14
-1 21 -9 7 -8 28 -15 48 -15 l35 0 -27 25 c-17 16 -26 32 -22 41 3 9 6 18 6
20 0 2 8 4 18 4 29 0 55 -35 50 -65 l-5 -25 94 0 c92 0 93 0 88 23 -12 53 44
58 67 6 13 -28 15 -29 91 -29 75 0 77 1 65 20 -15 23 -22 24 -49 10 -20 -11
-59 2 -59 20 0 15 38 22 61 10 15 -9 24 -9 32 -1 19 19 37 12 73 -24 l34 -35
424 0 c328 0 425 3 428 12 4 10 10 10 32 0 27 -12 96 -17 96 -6 0 11 -94 90
-222 186 -71 53 -167 132 -212 175 -136 129 -239 225 -300 278 -32 28 -101 92
-154 142 -80 77 -102 93 -129 93 -17 0 -35 5 -38 10 -7 12 -25 13 -25 2 0 -4
10 -12 22 -17 13 -6 27 -20 33 -31 18 -37 39 -56 73 -71 18 -7 37 -24 42 -37
9 -24 59 -66 79 -66 6 0 27 -22 48 -50 20 -27 45 -50 54 -50 17 0 40 -22 58
-58 11 -21 11 -22 -16 -16 -15 4 -53 32 -84 63 -31 31 -61 61 -67 66 -6 6 -26
26 -46 45 -20 19 -60 58 -89 86 -29 29 -62 55 -75 59 -13 4 -28 18 -35 31 -6
15 -22 28 -39 31 -15 3 -28 11 -28 18 0 6 -17 31 -39 54 -34 36 -42 40 -62 32
-13 -5 -40 -12 -60 -16 -21 -3 -49 -15 -63 -26 -27 -21 -96 -35 -96 -19 0 11
64 40 92 40 12 0 44 11 69 23 l47 23 -45 52 c-25 29 -50 52 -57 52 -7 0 -32
23 -55 50 -23 28 -47 50 -53 50 -6 0 -28 18 -48 40 -35 38 -50 45 -77 33z"/>
<path d="M730 1076 c0 -42 -1 -44 -35 -50 -68 -13 -43 -53 120 -191 39 -33 79
-69 90 -80 25 -24 175 -159 230 -206 22 -19 51 -45 66 -59 14 -14 88 -79 164
-145 77 -66 158 -138 181 -160 22 -22 77 -73 122 -113 l80 -72 126 0 c69 0
126 3 126 8 -3 45 -165 196 -289 269 -83 48 -217 156 -346 278 -135 128 -174
164 -210 194 -36 31 -109 95 -220 195 -25 22 -50 36 -67 36 -23 0 -28 5 -28
24 0 43 -17 72 -55 95 -20 11 -40 21 -46 21 -5 0 -9 -20 -9 -44z"/>
</g>
</svg>
